<?xml version="1.0" encoding="utf-8"?>
<!-- Generator: Adobe Illustrator 17.0.0, SVG Export Plug-In . SVG Version: 6.00 Build 0)  -->
<!DOCTYPE svg PUBLIC "-//W3C//DTD SVG 1.1//EN" "http://www.w3.org/Graphics/SVG/1.1/DTD/svg11.dtd">
<svg version="1.1" id="Layer_1" xmlns="http://www.w3.org/2000/svg" xmlns:xlink="http://www.w3.org/1999/xlink" x="0px" y="0px"
	 width="300px" height="43px" viewBox="0 0 300 43" enable-background="new 0 0 300 43" xml:space="preserve">
<path d="M45.123,15.55c-1.133,0-1.964,0.193-2.489,0.577c-0.527,0.385-0.932,1.023-1.214,1.913l-7.65,24.041h-4.128L22.903,22.35
	h-0.304l-6.86,19.731h-4.128L3.718,17.797c-0.284-0.89-0.648-1.488-1.093-1.791C2.179,15.702,1.472,15.55,0.5,15.55v-2.003h14.753
	v2.003h-1.7c-0.85,0-1.275,0.364-1.275,1.093c0,0.243,0.06,0.587,0.182,1.032l4.067,14.631h0.122l6.071-18.577h5.646l5.889,18.456
	h0.122l4.067-14.632c0.081-0.243,0.122-0.526,0.122-0.85c0-0.445-0.122-0.748-0.364-0.91c-0.243-0.161-0.628-0.243-1.153-0.243
	H35.47v-2.003h9.653V15.55z M70.5,16.461c2.428,2.429,3.642,6.192,3.642,11.292c0,5.141-1.225,8.926-3.673,11.353
	c-2.449,2.429-6.223,3.644-11.322,3.644s-8.885-1.215-11.353-3.644c-2.469-2.428-3.703-6.171-3.703-11.231
	c0-5.1,1.245-8.884,3.734-11.353c2.489-2.469,6.303-3.703,11.444-3.703C64.327,12.819,68.071,14.032,70.5,16.461z M65.097,28.603
	c0-4.775-0.466-8.236-1.397-10.382c-0.931-2.145-2.469-3.217-4.614-3.217c-2.105,0-3.623,1.062-4.553,3.187
	c-0.931,2.125-1.396,5.373-1.396,9.745c0,4.492,0.465,7.731,1.396,9.712c0.931,1.983,2.49,2.975,4.675,2.975
	c2.064,0,3.561-0.971,4.492-2.914C64.631,35.766,65.097,32.731,65.097,28.603z M95.756,12.94c-3.198,0-5.728,1.964-7.589,5.889
	h-0.182v-5.585h-2.61l-9.532,1.518v2.003h2.003c0.729,0,1.204,0.152,1.427,0.455c0.222,0.303,0.334,0.921,0.334,1.851v17.971
	c0,0.89-0.091,1.538-0.273,1.942c-0.182,0.405-0.537,0.688-1.062,0.849c-0.527,0.162-1.377,0.244-2.55,0.244v2.003h17.181v-2.003
	c-1.417,0-2.439-0.082-3.066-0.244c-0.628-0.162-1.053-0.444-1.275-0.849c-0.223-0.404-0.334-1.052-0.334-1.942V25.629h0.06
	c0-1.375,0.263-2.813,0.79-4.311c0.526-1.497,1.163-2.741,1.912-3.734c0.749-0.991,1.467-1.488,2.155-1.488
	c0.202,0,0.364,0.051,0.486,0.152c0.121,0.101,0.182,0.212,0.182,0.334s-0.173,0.395-0.516,0.82
	c-0.344,0.425-0.516,1.042-0.516,1.851c0,1.134,0.364,2.024,1.093,2.672c0.729,0.648,1.7,0.971,2.914,0.971
	c1.457,0,2.55-0.445,3.279-1.336c0.728-0.89,1.093-2.003,1.093-3.34c0-1.578-0.476-2.853-1.427-3.825
	C98.781,13.425,97.456,12.94,95.756,12.94z M133.275,40.078h1.396v2.003h-11.717l-0.425-2.671c-2.671,2.227-5.646,3.34-8.924,3.34
	c-3.642,0-6.476-1.245-8.5-3.734c-2.024-2.49-3.036-6-3.036-10.534c0-5.099,1.275-8.975,3.825-11.626
	c2.55-2.65,6.151-3.977,10.807-3.977c1.902,0,3.642,0.264,5.221,0.789h0.303v-7.71c0-0.85-0.132-1.436-0.395-1.76
	c-0.264-0.324-0.699-0.486-1.305-0.486h-2.064V1.708l9.714-1.518h2.61v36.852c0,1.255,0.172,2.074,0.516,2.458
	C131.646,39.886,132.304,40.078,133.275,40.078z M122.226,16.886c-1.579-1.214-3.178-1.821-4.796-1.821
	c-2.186,0-3.805,0.971-4.857,2.914c-1.053,1.942-1.579,4.878-1.579,8.804c0,4.168,0.536,7.296,1.609,9.379
	c1.072,2.085,2.621,3.127,4.644,3.127c0.972,0,1.822-0.244,2.55-0.729c0.729-0.486,1.538-1.194,2.429-2.126V16.886z M151.427,23.868
	l-2.792-0.85c-1.498-0.526-2.682-1.102-3.553-1.73c-0.871-0.627-1.304-1.488-1.304-2.58c0-1.093,0.455-1.983,1.367-2.672
	c0.91-0.688,2.093-1.032,3.551-1.032c1.861,0,3.46,0.607,4.797,1.821c1.335,1.214,2.285,2.894,2.852,5.039h1.822L157.742,13h-1.518
	c-0.123,0.364-0.265,0.638-0.425,0.82c-0.164,0.182-0.466,0.273-0.912,0.273c-0.446,0-1.052-0.141-1.822-0.425
	c-0.121-0.039-0.606-0.182-1.455-0.425c-0.852-0.243-2.005-0.364-3.462-0.364c-3.359,0-6.019,0.82-7.983,2.459
	c-1.963,1.639-2.943,3.876-2.943,6.709c0,2.024,0.607,3.714,1.821,5.069c1.215,1.357,3.237,2.519,6.07,3.492l3.219,0.91
	c1.861,0.689,3.156,1.356,3.885,2.004c0.729,0.648,1.093,1.538,1.093,2.671c0,1.456-0.515,2.56-1.548,3.308
	c-1.033,0.75-2.337,1.123-3.915,1.123c-2.268,0-4.2-0.748-5.799-2.246c-1.598-1.496-2.64-3.54-3.126-6.131h-1.942l0.547,9.896h1.457
	c0.446-0.566,0.991-0.849,1.64-0.849c0.403,0,1.091,0.162,2.063,0.485c1.74,0.688,3.581,1.033,5.526,1.033
	c3.641,0,6.496-0.911,8.559-2.732c2.065-1.822,3.096-4.209,3.096-7.164c0-2.266-0.666-4.098-2.003-5.495
	C156.528,26.024,154.381,24.839,151.427,23.868z M211.107,38.985c-0.163-0.404-0.244-1.052-0.244-1.942V22.411
	c0-3.238-0.799-5.636-2.397-7.194c-1.6-1.558-3.855-2.338-6.77-2.338c-2.185,0-4.108,0.405-5.767,1.214
	c-1.66,0.81-2.996,2.003-4.007,3.582c-0.568-1.416-1.57-2.57-3.005-3.461c-1.437-0.89-3.208-1.336-5.312-1.336
	c-3.683,0-6.942,1.418-9.775,4.25h-0.121v-3.886h-2.611l-9.531,1.518v2.003h2.003c0.729,0,1.204,0.152,1.427,0.455
	c0.222,0.303,0.333,0.921,0.333,1.851v17.971c0,0.89-0.091,1.538-0.273,1.942c-0.182,0.405-0.537,0.688-1.063,0.849
	c-0.526,0.162-1.375,0.244-2.549,0.244v2.003h15.846v-2.003c-0.972,0-1.681-0.061-2.126-0.183c-0.445-0.121-0.759-0.384-0.941-0.789
	c-0.182-0.403-0.273-1.052-0.273-1.942V19.436c0.93-1.011,1.8-1.74,2.611-2.186c0.808-0.445,1.719-0.668,2.732-0.668
	c1.497,0,2.621,0.496,3.37,1.488c0.748,0.992,1.123,2.56,1.123,4.705v14.571c0,0.851-0.071,1.456-0.212,1.821
	c-0.142,0.364-0.426,0.608-0.851,0.729c-0.425,0.122-1.123,0.183-2.094,0.183v2.003h15.056v-2.003c-1.011,0-1.74-0.082-2.185-0.244
	c-0.446-0.162-0.739-0.444-0.881-0.849c-0.142-0.404-0.212-1.052-0.212-1.942V20.529c1.174-2.631,2.915-3.946,5.222-3.946
	c3.075,0,4.614,2.064,4.614,6.192v14.571c0,0.81-0.071,1.407-0.212,1.791c-0.142,0.386-0.436,0.638-0.881,0.759
	c-0.445,0.122-1.153,0.183-2.125,0.183v2.003h15.482v-2.003c-1.093,0-1.893-0.082-2.398-0.244
	C211.602,39.673,211.267,39.39,211.107,38.985z M224.463,9.843c1.336,0,2.508-0.465,3.521-1.397c1.011-0.93,1.518-2.064,1.518-3.399
	s-0.496-2.479-1.488-3.431c-0.992-0.95-2.175-1.427-3.551-1.427c-1.336,0-2.5,0.476-3.492,1.427
	c-0.992,0.952-1.488,2.095-1.488,3.431s0.496,2.469,1.488,3.399C221.963,9.379,223.127,9.843,224.463,9.843z M229.259,38.985
	c-0.163-0.404-0.243-1.052-0.243-1.942V13.243h-2.671l-9.715,1.518v2.003h2.004c0.729,0,1.204,0.152,1.426,0.455
	s0.334,0.921,0.334,1.851v17.971c0,0.89-0.091,1.538-0.273,1.942c-0.182,0.405-0.537,0.688-1.063,0.849
	c-0.526,0.162-1.377,0.244-2.549,0.244v2.003h16.027v-2.003c-1.053,0-1.821-0.082-2.307-0.244
	C229.744,39.673,229.419,39.39,229.259,38.985z M250.203,38.833c-0.527,0.223-1.093,0.333-1.7,0.333
	c-1.215,0-2.085-0.455-2.611-1.365c-0.526-0.912-0.789-2.338-0.789-4.281V15.732h5.949v-2.186h-5.949V2.801H243.1
	c-0.769,2.753-2.085,5.16-3.946,7.225s-3.967,3.299-6.314,3.703v2.003h3.642v18.153c0,3.116,0.678,5.383,2.034,6.799
	c1.356,1.416,3.349,2.126,5.981,2.126c1.375,0,2.671-0.193,3.885-0.577c1.215-0.385,2.236-0.87,3.066-1.457
	c0.829-0.585,1.326-0.941,1.488-1.062l-1.032-1.701C251.295,38.338,250.728,38.611,250.203,38.833z M284.869,38.985
	c-0.162-0.404-0.243-1.052-0.243-1.942V22.411c0-3.197-0.769-5.585-2.307-7.164s-3.703-2.368-6.496-2.368
	c-3.522,0-6.739,1.377-9.653,4.129h-0.122V0.19h-2.671l-9.714,1.518v2.004h2.004c0.728,0,1.203,0.151,1.426,0.455
	c0.222,0.304,0.334,0.921,0.334,1.852v31.024c0,0.89-0.092,1.538-0.274,1.942c-0.182,0.405-0.537,0.688-1.062,0.849
	c-0.527,0.162-1.377,0.244-2.55,0.244v2.003h15.846v-2.003c-1.012,0-1.741-0.082-2.186-0.244c-0.445-0.162-0.749-0.434-0.91-0.819
	c-0.163-0.384-0.244-1.003-0.244-1.852V19.558c0.971-1.052,1.872-1.811,2.702-2.277c0.829-0.465,1.75-0.699,2.762-0.699
	c1.497,0,2.621,0.496,3.37,1.488c0.748,0.992,1.123,2.56,1.123,4.705v14.571c0,0.81-0.071,1.396-0.212,1.76
	c-0.142,0.364-0.426,0.618-0.851,0.759c-0.425,0.142-1.123,0.213-2.094,0.213v2.003h15.482v-2.003c-1.134,0-1.953-0.082-2.459-0.244
	C285.365,39.673,285.03,39.39,284.869,38.985z M298.134,34.705c-0.911-0.911-2.014-1.366-3.309-1.366
	c-1.255,0-2.337,0.466-3.248,1.397s-1.366,2.023-1.366,3.277c0,1.256,0.455,2.338,1.366,3.249c0.911,0.91,1.993,1.366,3.248,1.366
	c1.296,0,2.398-0.445,3.309-1.336s1.366-1.983,1.366-3.279C299.5,36.719,299.045,35.615,298.134,34.705z"/>
</svg>
